<?xml version="1.0" standalone="no"?>
<!DOCTYPE svg PUBLIC "-//W3C//DTD SVG 20010904//EN"
 "http://www.w3.org/TR/2001/REC-SVG-20010904/DTD/svg10.dtd">
<svg version="1.0" xmlns="http://www.w3.org/2000/svg"
 width="500.000000pt" height="500.000000pt" viewBox="0 0 500.000000 500.000000"
 preserveAspectRatio="xMidYMid meet">
<metadata>
Created by potrace 1.14, written by Peter Selinger 2001-2017
</metadata>
<g transform="translate(0.000000,500.000000) scale(0.100000,-0.100000)"
fill="#000000" stroke="none">
<path d="M0 2500 l0 -2500 2500 0 2500 0 0 2500 0 2500 -2500 0 -2500 0 0
-2500z m4010 1565 l0 -95 -1515 0 -1515 0 0 95 0 95 1515 0 1515 0 0 -95z
m150 -1765 l0 -1470 -655 0 -655 0 0 515 0 515 -355 0 -355 0 0 -515 0 -515
-655 0 -655 0 0 1470 0 1470 1665 0 1665 0 0 -1470z"/>
<path d="M1107 3493 c-4 -3 -7 -114 -7 -245 l0 -238 355 0 355 0 0 245 0 245
-348 0 c-192 0 -352 -3 -355 -7z"/>
<path d="M2147 3493 c-4 -3 -7 -114 -7 -245 l0 -238 355 0 355 0 -2 243 -3
242 -346 3 c-190 1 -348 -1 -352 -5z"/>
<path d="M3180 3255 l0 -245 355 0 355 0 -2 243 -3 242 -352 3 -353 2 0 -245z"/>
<path d="M1100 2440 l0 -240 355 0 355 0 0 240 0 240 -355 0 -355 0 0 -240z"/>
<path d="M2140 2440 l0 -240 355 0 355 0 0 240 0 240 -355 0 -355 0 0 -240z"/>
<path d="M3180 2440 l0 -240 355 0 355 0 0 240 0 240 -355 0 -355 0 0 -240z"/>
<path d="M1100 1620 l0 -240 355 0 355 0 0 240 0 240 -355 0 -355 0 0 -240z"/>
<path d="M3180 1620 l0 -240 355 0 355 0 0 240 0 240 -355 0 -355 0 0 -240z"/>
</g>
</svg>
